Coordinates
version=1
nRows=17
nColumns=36
inDegrees=yes

Units are S.I. units (second, meters, Newtons, ...)
If the header above contains a line with 'inDegrees', this indicates whether rotational values are in degrees (yes) or radians (no).

endheader
time	pelvis_tilt	pelvis_list	pelvis_rotation	pelvis_tx	pelvis_ty	pelvis_tz	hip_flexion_r	hip_adduction_r	hip_rotation_r	knee_angle_r	knee_angle_r_beta	ankle_angle_r	subtalar_angle_r	mtp_angle_r	hip_flexion_l	hip_adduction_l	hip_rotation_l	knee_angle_l	knee_angle_l_beta	ankle_angle_l	subtalar_angle_l	mtp_angle_l	lumbar_extension	lumbar_bending	lumbar_rotation	arm_flex_r	arm_add_r	arm_rot_r	elbow_flex_r	pro_sup_r	arm_flex_l	arm_add_l	arm_rot_l	elbow_flex_l	pro_sup_l
     30.00000000	     -0.20525904	     -3.02443940	     -0.05195202	      0.85601040	      1.03010183	      0.88530771	      0.00570307	      4.82369181	     -9.24867069	      9.96865454	      0.17398584	     14.65934927	      1.74616034	     -7.49999987	     25.17600989	     -9.10041990	     -3.84345963	     44.84250481	      0.78264935	      3.34776571	    -14.04717283	     -7.49999987	    -12.71918981	      6.90312855	      7.12913387	      7.62124016	    -13.82726464	     -0.80119523	     29.84511579	     69.99491066	     -2.30541279	     -4.44337901	     -1.16885404	     16.27091136	     67.11896124
     30.01666670	     -0.50351725	     -2.83399030	     -0.06237856	      0.85424981	      1.03232242	      0.88564804	     -0.45415447	      4.63447157	     -8.92564327	      9.48287145	      0.16550733	     14.48233324	      1.57427653	     -7.49999987	     25.80491249	     -8.90730410	     -4.67595744	     40.68494659	      0.71008627	      3.10266439	    -12.98013700	     -7.49999987	    -12.75521207	      6.84872699	      7.33865004	      7.76866120	    -14.05881030	     -0.58595865	     31.03530987	     70.16595316	     -2.66565005	     -4.42121337	     -1.07880053	     16.45694192	     66.94621180
     30.03333330	     -0.76946416	     -2.60084389	      0.14172987	      0.85479060	      1.03477819	      0.88505830	     -1.02027306	      4.36571094	     -8.87936676	      9.04603810	      0.15788315	     14.58822277	      1.83201695	     -7.49999987	     26.33192060	     -8.39290247	     -5.19845744	     36.30672719	      0.63367193	      3.45286587	    -11.14261186	     -7.49999987	    -12.73920782	      6.79552818	      7.24653767	      7.83811909	    -14.17024474	     -0.51277335	     32.04533775	     70.15591240	     -3.14872479	     -4.41687194	     -1.19895913	     16.94735383	     66.76059111
     30.05000000	     -1.07934262	     -2.39370602	      0.31150190	      0.85599063	      1.03611190	      0.88421968	     -1.52767169	      4.11693511	     -8.50101708	      8.77909917	      0.15322419	     14.77032406	      1.70065872	     -7.49999987	     26.79220248	     -7.82011778	     -5.76085901	     31.83902832	      0.55569587	      4.63956577	     -8.37874228	     -7.49999987	    -12.58899697	      6.77567880	      7.29015291	      7.66869373	    -14.33994207	     -0.22277360	     33.04650615	     70.41147814	     -3.49604526	     -4.37522820	     -1.24287650	     17.18141686	     66.58633869
     30.06666670	     -1.49577655	     -2.12328807	      0.77086737	      0.85574734	      1.03525485	      0.88288826	     -1.84596139	      3.75247806	     -8.62052113	      8.74239909	      0.15258365	     15.37615113	      1.59128689	     -7.49999987	     27.11360417	     -7.00563645	     -6.11463147	     27.03082685	      0.47177693	      5.62527520	     -5.31528381	     -7.49999987	    -12.10269817	      6.72908740	      6.98788537	      7.50622226	    -14.32784720	     -0.06721101	     33.46912548	     70.55116984	     -3.83222512	     -4.34204915	     -1.25516407	     17.41983741	     66.35242294
     30.08333330	     -2.01081115	     -1.94878862	      1.26340912	      0.85460684	      1.03320323	      0.88160196	     -1.97485069	      3.47249330	     -8.82148832	      8.91986335	      0.15568098	     16.20936414	      1.16922961	     -7.49999987	     27.31537335	     -6.28920122	     -6.39597380	     22.30705749	      0.38933160	      6.01527823	     -2.39014396	     -7.49999987	    -11.34067353	      6.77408025	      6.59207308	      7.35633830	    -14.29053478	      0.18770519	     33.54433813	     70.56450919	     -4.10489445	     -4.29050582	     -1.24005713	     17.47664153	     66.01841386
     30.10000000	     -2.75673541	     -1.85607210	      1.61427866	      0.85400371	      1.03096753	      0.88067572	     -1.93089445	      3.30476979	     -8.92489272	      8.99945453	      0.15707011	     16.77825644	      0.58362794	     -7.49999987	     27.65432132	     -5.69394114	     -6.43112535	     17.97326141	      0.31369259	      5.89341063	      0.10563241	     -7.49999987	    -10.24675543	      6.78943662	      6.44914897	      6.93655409	    -14.23175123	      0.31641467	     33.57834812	     70.20452394	     -4.38854725	     -4.22753631	     -1.32963776	     17.67172636	     65.63518552
     30.11666670	     -3.41563513	     -2.01641226	      2.10907567	      0.85346033	      1.02861214	      0.87941286	     -2.10514811	      3.41500123	     -9.85494949	      8.90031757	      0.15533985	     17.28409390	      1.33212864	     -7.49999987	     28.06534035	     -5.23117662	     -5.73449879	     14.30313067	      0.24963672	      5.78573792	      2.19314448	     -7.49999987	     -9.16007363	      7.10795984	      5.58209654	      7.06201977	    -14.06427845	      1.07960874	     32.95501345	     70.73194940	     -4.73545126	     -4.24790807	     -0.92414275	     17.43001929	     65.66135550
     30.13333330	     -4.25410475	     -2.14176178	      2.42126309	      0.85324365	      1.02509298	      0.87836495	     -2.23282444	      3.58499301	    -10.26636560	      8.59352501	      0.14998531	     17.23013356	      1.76362322	     -7.49999987	     28.77521005	     -4.84216235	     -5.01049917	     11.40415942	      0.19904013	      5.82760422	      3.84303265	     -7.49999987	     -7.90112708	      7.24156305	      5.11403088	      6.87807774	    -13.84923052	      1.44650847	     32.38780271	     71.22363560	     -5.02585470	     -4.38083484	     -0.69382363	     17.39752613	     65.75046686
     30.15000000	     -4.81176114	     -2.17459245	      2.71770894	      0.85350143	      1.02154713	      0.87707239	     -2.72904769	      3.72517820	    -10.34566118	      8.25340486	      0.14404909	     16.92481590	      2.05131129	     -7.49999987	     29.29997097	     -4.45808742	     -4.32053944	      9.50242125	      0.16584854	      5.94689960	      4.97243155	     -7.49999987	     -7.07512745	      7.16956267	      4.82059245	      6.54591271	    -13.55251406	      1.50986900	     32.14131343	     71.30530415	     -5.06823901	     -4.59560108	     -0.65953584	     17.42874129	     65.79726822
     30.16666670	     -5.55415122	     -2.13285425	      3.02457938	      0.85454658	      1.01853310	      0.87498273	     -2.89426153	      3.70974556	    -10.42759564	      8.30749318	      0.14499311	     16.90500769	      2.64447861	     -7.49999987	     30.17901638	     -4.10123357	     -4.13122320	      8.96927260	      0.15654334	      6.34031553	      6.27393142	     -7.49999987	     -5.82525777	      6.97909386	      4.18380036	      6.57302544	    -12.97870996	      1.54361500	     30.80330848	     71.54422546	     -5.10770046	     -4.85604604	     -0.32940431	     17.08427233	     66.03313385
     30.18333330	     -5.98567692	     -2.02756885	      3.16096489	      0.85602713	      1.01632255	      0.87299339	     -3.23968446	      3.56170358	    -10.06433155	      8.63989383	      0.15079459	     16.80747492	      2.77652587	     -7.49999987	     30.75150587	     -3.85513544	     -4.30159326	      9.54517694	      0.16659477	      6.33382219	      7.07978231	     -7.49999987	     -4.99523758	      6.66288131	      3.95359164	      6.56041454	    -12.52213595	      1.72641615	     29.33138201	     71.82856443	     -4.92700475	     -5.11271038	      0.06179361	     16.87439532	     66.30023435
     30.20000000	     -6.23509119	     -1.95173904	      3.11657211	      0.85737459	      1.01356942	      0.87205160	     -3.55951028	      3.34514606	     -9.45714862	      9.32216810	      0.16270253	     16.78128513	      2.57975671	     -7.49999987	     31.14128703	     -3.80212775	     -4.66192329	     10.91409344	      0.19048687	      6.00985317	      7.60341958	     -7.49999987	     -4.41038023	      6.37040644	      3.95003655	      6.53319869	    -12.10506869	      1.96329420	     27.86604518	     72.09058736	     -4.69510109	     -5.34276682	      0.45151653	     16.72872050	     66.56117135
     30.21666670	     -6.43995460	     -1.92463584	      2.89895964	      0.85843540	      1.00979521	      0.87164518	     -3.72426387	      3.10161358	     -8.66280757	     10.29595074	      0.17969824	     16.81645442	      2.07335054	     -7.49999987	     31.44791737	     -3.92561294	     -5.10836169	     12.64150785	      0.22063593	      5.28875442	      7.78921385	     -7.49999987	     -3.92686066	      6.15197129	      4.13464516	      6.36936321	    -11.72145143	      2.25656208	     26.44343820	     72.32783306	     -4.47372308	     -5.52661712	      0.78642905	     16.68734531	     66.80206781
     30.23333330	     -6.45805192	     -1.86990166	      2.65475159	      0.86001302	      1.00574384	      0.87000866	     -3.85621195	      2.75357910	     -8.04346518	     11.64833719	      0.20330184	     17.02400799	      1.55608657	     -7.49999987	     31.50118657	     -4.04083676	     -5.38781622	     14.47269937	      0.25259626	      4.45715493	      7.63143917	     -7.49999987	     -3.76705736	      5.96833053	      4.26455930	      6.08010532	    -11.41803520	      2.40703303	     25.71014232	     72.41263415	     -4.23996154	     -5.65889210	      0.87836115	     16.76676741	     66.88563815
     30.25000000	     -6.83588858	     -1.75542404	      2.06276195	      0.86373365	      1.00167282	      0.86696427	     -3.46578662	      2.31749594	     -6.73028640	     13.23485727	      0.23099184	     16.83775644	      0.09224743	     -7.49999987	     31.75601704	     -4.24392044	     -5.93829793	     16.28176172	      0.28417035	      3.55673269	      7.16587867	     -7.49999987	     -2.94708514	      5.71918750	      4.87976264	      5.73563110	    -11.14490526	      2.67474826	     24.00229780	     72.58869634	     -4.07327328	     -5.77539062	      1.05178427	     16.89400301	     67.07337143
     30.26666670	     -7.12303752	     -1.55442553	      1.62927116	      0.86877576	      1.00068720	      0.86298718	     -3.11969738	      1.78736715	     -5.66478898	     14.91569479	      0.26032798	     16.29151913	     -1.52764393	     -7.49999987	     31.78760064	     -4.22642687	     -6.22582234	     18.01563261	      0.31443211	      2.95331215	      6.53415336	     -7.49999987	     -2.16460699	      5.48933596	      5.18367871	      5.37390692	    -10.92309163	      2.94399556	     22.54015657	     72.77603973	     -3.82601804	     -5.88037599	      1.14958440	     16.92088441	     67.29055752
